<?xml version="1.0" standalone="no"?>
<!DOCTYPE svg PUBLIC "-//W3C//DTD SVG 20010904//EN"
 "http://www.w3.org/TR/2001/REC-SVG-20010904/DTD/svg10.dtd">
<svg version="1.0" xmlns="http://www.w3.org/2000/svg"
 width="700.000000pt" height="700.000000pt" viewBox="0 0 700.000000 700.000000"
 preserveAspectRatio="xMidYMid meet">
<metadata>
Created by potrace 1.14, written by Peter Selinger 2001-2017
</metadata>
<g transform="translate(0.000000,700.000000) scale(0.100000,-0.100000)"
fill="#000000" stroke="none">
<path d="M0 3712 l0 -2127 208 -208 c114 -114 212 -207 217 -207 6 0 436 426
957 947 l948 948 0 -740 0 -740 208 -208 c114 -114 212 -207 217 -207 6 0 964
954 2130 2120 l2120 2120 -215 215 -215 215 -1060 0 -1059 0 -57 -56 -56 -56
-49 56 -49 56 -2122 0 -2123 0 0 -2128z m3720 1905 c0 -1 -787 -790 -1750
-1752 l-1750 -1750 0 1753 0 1752 1750 0 c963 0 1750 -1 1750 -3z m585 -1747
l-1750 -1750 -3 752 -2 753 997 997 998 998 755 0 755 0 -1750 -1750z"/>
<path d="M350 3958 l0 -1533 1525 1525 c839 839 1525 1528 1525 1532 0 5 -686
8 -1525 8 l-1525 0 0 -1532z"/>
<path d="M3637 4532 l-957 -957 2 -573 3 -572 1530 1530 1530 1530 -575 0
-575 0 -958 -958z"/>
</g>
</svg>
