<?xml version="1.0" encoding="utf-8"?>
<!-- Generator: Adobe Illustrator 26.5.0, SVG Export Plug-In . SVG Version: 6.00 Build 0)  -->
<svg version="1.1" id="레이어_1" xmlns="http://www.w3.org/2000/svg" xmlns:xlink="http://www.w3.org/1999/xlink" x="0px"
	 y="0px" viewBox="0 0 375 110" style="enable-background:new 0 0 375 110;" xml:space="preserve">
<style type="text/css">
	.st0{fill:#7065FF;}
	.st1{fill:#D5FFA4;}
</style>
<g>
	<g>
		<polygon points="365,0 320,45 320,10 310,0 210,100 220,110 270,110 272.8,107.2 275,110 375,110 375,10 		"/>
	</g>
	<g>
		<polygon points="240,45 205,45 240,10 230,0 180,0 125,55 137.5,62.5 172.5,62.5 135,100 145,110 195,110 247.5,57.5 		"/>
	</g>
	<g>
		<polygon points="165,10 155,0 105,0 102.4,2.6 100,0 0,0 0,100 10,110 55,65 55,100 65,110 		"/>
	</g>
</g>
<g id="g">
	<g>
		<polygon class="st0" points="283.1,92.5 357.5,18.1 357.5,92.5 		"/>
		<path class="st1" d="M355,24.2V90h-65.8L355,24.2 M360,12.1L277.1,95H360V12.1L360,12.1z"/>
	</g>
	<g>
		<polygon class="st0" points="228.1,92.5 302.5,18.2 302.5,46.9 256.9,92.5 		"/>
		<path class="st1" d="M300,24.3v21.6L255.8,90h-21.6L300,24.3 M305,12.2L222.1,95h35.8L305,47.9V12.2L305,12.2z"/>
	</g>
	<g>
		<g>
			<polygon class="st0" points="153.1,92.5 193.1,52.5 221.9,52.5 181.9,92.5 			"/>
			<path class="st1" d="M215.8,55l-35,35h-21.7l35-35H215.8 M227.9,50h-35.8l-45,45h35.8L227.9,50L227.9,50z"/>
		</g>
	</g>
	<g>
		<g>
			<polygon class="st0" points="143.1,47.5 183.1,7.5 211.9,7.5 171.9,47.5 			"/>
			<path class="st1" d="M205.8,10l-35,35h-21.7l35-35H205.8 M217.9,5h-35.8l-45,45h35.8L217.9,5L217.9,5z"/>
		</g>
	</g>
	<g>
		<g>
			<polygon class="st0" points="62.5,53.1 108.1,7.5 136.9,7.5 62.5,81.9 			"/>
			<path class="st1" d="M130.9,10L65,75.9V54.1L109.1,10H130.9 M142.9,5h-35.9L60,52.1v35.9L142.9,5L142.9,5z"/>
		</g>
		<g>
			<polygon class="st0" points="7.5,7.5 81.9,7.5 7.5,81.9 			"/>
			<path class="st1" d="M75.9,10L10,75.9V10H75.9 M87.9,5H5v82.9L87.9,5L87.9,5z"/>
		</g>
	</g>
</g>
</svg>
