<svg xmlns="http://www.w3.org/2000/svg" width="73.012" height="73.011" viewBox="0 0 73.012 73.011">
  <path id="accessibility-icon" d="M36.49,0a36.5,36.5,0,1,1-25.8,10.691A36.5,36.5,0,0,1,36.49,0Zm-.232,44.059L30.943,58.747a2.934,2.934,0,0,1-1.532,1.681,2.97,2.97,0,0,1-4.051-3.706l3.706-10.263a15.62,15.62,0,0,0,.695-2.376,24.138,24.138,0,0,0,.321-2.483c.143-1.5.244-3.13.321-4.692s.131-3.077.172-4.33c.053-1.562-.368-1.663-1.621-1.96l-.261-.059L18,28.545a2.96,2.96,0,1,1,1.081-5.821L30.569,24.88c.457.042.9.1,1.372.148a34.235,34.235,0,0,0,4.265.315,48.187,48.187,0,0,0,5.31-.4c.535-.059,1.039-.125,1.544-.172L53.9,22.742a2.961,2.961,0,1,1,1.093,5.821L44.633,30.511c-.344.077-.653.131-.927.172-1.081.184-1.616.279-1.55,1.817.048,1.123.184,2.465.362,3.867.208,1.645.481,3.391.766,4.989a24.352,24.352,0,0,0,.594,2.7c.238.808.469,1.633.826,2.625l3.629,10.038a2.97,2.97,0,0,1-4.051,3.706,2.934,2.934,0,0,1-1.532-1.681L37.417,44.088,36.823,43l-.594,1.057Zm.232-31.788a5.245,5.245,0,1,1-3.706,1.538A5.245,5.245,0,0,1,36.49,12.271ZM58.08,14.9a30.541,30.541,0,1,0,8.909,21.59A30.541,30.541,0,0,0,58.08,14.9Z" transform="translate(0.003)" fill="#fff"/>
</svg>
