<svg id="adobe-illustrator-svgrepo-com" xmlns="http://www.w3.org/2000/svg" width="73.012" height="73.011" viewBox="0 0 73.012 73.011">
  <g id="그룹_18" data-name="그룹 18">
    <path id="패스_52" data-name="패스 52" d="M9.942,5.772H9.834c-.55,2.211-1.1,5.02-1.709,7.171L5.917,20.823h8.214l-2.315-7.881C11.158,10.736,10.5,7.983,9.942,5.772Z" transform="translate(19.69 19.207)" fill="#fff"/>
    <path id="패스_53" data-name="패스 53" d="M68.537,0H4.47A4.468,4.468,0,0,0,0,4.47v64.07a4.471,4.471,0,0,0,4.47,4.47H68.542a4.473,4.473,0,0,0,4.47-4.47V4.47A4.474,4.474,0,0,0,68.537,0ZM37.9,55.848l-2.869-9.534H24.4l-2.649,9.534H13.044L24.4,18.7H35.418L46.942,55.848Zm21.79,0H51.309V28.9h8.383ZM55.45,25.594A4.106,4.106,0,0,1,51.092,21.4a4.1,4.1,0,0,1,4.419-4.237,4.223,4.223,0,1,1-.061,8.43Z" fill="#fff"/>
  </g>
</svg>
