<?xml version="1.0" encoding="utf-8"?>
<!-- Generator: Adobe Illustrator 26.3.1, SVG Export Plug-In . SVG Version: 6.00 Build 0)  -->
<svg version="1.1" id="레이어_1" xmlns="http://www.w3.org/2000/svg" xmlns:xlink="http://www.w3.org/1999/xlink" x="0px"
	 y="0px" viewBox="0 0 73 73" style="enable-background:new 0 0 73 73;" xml:space="preserve">
<style type="text/css">
	.st0{fill:#FFFFFF;}
</style>
<g>
	<path class="st0" d="M68.5,0H4.5C2,0,0,2,0,4.5c0,0,0,0,0,0v64.1C0,71,2,73,4.5,73h64.1c2.5,0,4.5-2,4.5-4.5V4.5C73,2,71,0,68.5,0z
		 M39.2,53.4c0,0.1-0.1,0-0.4,0.1h-7.1c-0.5,0-0.9,0-1.1-0.4c-0.7-1.3-1.3-2.6-2-3.9c-0.7-1.3-1.4-2.6-2.1-3.9
		c-0.8-1.3-1.5-2.7-2.2-4.1h-0.1c-0.7,1.3-1.4,2.7-2.1,4c-0.7,1.3-1.4,2.7-2.1,4c-0.7,1.3-1.4,2.6-2.2,3.9c-0.1,0.3-0.4,0.3-0.7,0.3
		h-6.9c-0.1,0-0.2,0.1-0.2-0.1c0-0.1,0-0.2,0.1-0.4l9.7-15.9l-9.4-16c-0.1-0.1-0.1-0.2,0-0.3c0.1-0.1,0.2-0.1,0.3-0.1h7.1
		c0.2,0,0.3,0,0.5,0.1c0.1,0.1,0.2,0.2,0.3,0.3c0.6,1.3,1.3,2.7,2,4c0.7,1.3,1.5,2.7,2.2,4c0.8,1.3,1.4,2.6,2.1,4h0.1
		c0.7-1.4,1.3-2.7,2-4c0.7-1.3,1.4-2.6,2.1-3.9c0.7-1.3,1.4-2.6,2.1-3.9c0-0.1,0.1-0.2,0.2-0.3c0.1-0.1,0.3-0.1,0.4-0.1h6.6
		c0.2,0,0.3,0.1,0.3,0.2c0,0.1,0,0.2-0.1,0.3l0,0l-9.3,15.4l10,16.4C39.2,53.1,39.2,53.3,39.2,53.4z M62.8,52.2
		c-1.6,0.7-3.3,1.2-5.1,1.5c-1.6,0.3-3.2,0.4-4.8,0.5c-2.3,0-4.6-0.4-6.7-1.4c-2-0.9-3.6-2.4-4.7-4.2c-1.2-2.2-1.8-4.6-1.7-7.1
		c0-2.3,0.6-4.6,1.7-6.6c1.2-2,2.9-3.7,5-4.8c2.4-1.3,5.1-1.9,7.9-1.8c0.2,0,0.4,0,0.7,0c0.3,0,0.6,0,1,0.1v-9.9
		c0-0.2,0.1-0.4,0.3-0.4h6.3c0.1,0,0.3,0.1,0.3,0.2c0,0,0,0.1,0,0.1V48c0,0.6,0,1.2,0.1,1.9c0,0.7,0.1,1.3,0.1,1.8
		C63.1,51.9,63,52.1,62.8,52.2z"/>
	<path class="st0" d="M54.1,34c-1.2,0-2.4,0.3-3.5,0.8c-2.4,1.1-3.8,3.6-3.7,6.3c0,1.1,0.2,2.2,0.5,3.2c0.3,0.8,0.8,1.6,1.4,2.2
		c0.6,0.6,1.3,1,2.1,1.3c0.8,0.3,1.7,0.4,2.6,0.4c0.5,0,0.9,0,1.3,0c0.4,0,0.7-0.1,1.1-0.2l0,0V34.2c-0.3-0.1-0.5-0.1-0.8-0.1
		C54.8,34,54.4,34,54.1,34z"/>
</g>
</svg>
