<svg id="adobe-photoshop-logo-svgrepo-com" xmlns="http://www.w3.org/2000/svg" width="73.029" height="73.011" viewBox="0 0 73.029 73.011">
  <g id="그룹_19" data-name="그룹 19" transform="translate(0 0)">
    <path id="패스_54" data-name="패스 54" d="M8.781,4.982a15.091,15.091,0,0,0-3.754.364V17.222a14.136,14.136,0,0,0,3.039.234c4.837,0,7.822-2.446,7.822-6.567C15.884,7.193,13.317,4.982,8.781,4.982Z" transform="translate(15.988 15.836)" fill="#fff"/>
    <path id="패스_55" data-name="패스 55" d="M68.56,0H4.473A4.467,4.467,0,0,0,0,4.463V68.544a4.472,4.472,0,0,0,4.473,4.469H68.56a4.471,4.471,0,0,0,4.469-4.469V4.467A4.467,4.467,0,0,0,68.56,0ZM37.181,36.046c-3.1,2.926-7.7,4.239-13.064,4.239a22.576,22.576,0,0,1-3.106-.18V54.494H11.994V14.8a75.132,75.132,0,0,1,12.3-.832c5.606,0,9.611,1.07,12.291,3.223A11.74,11.74,0,0,1,40.889,26.5,12.844,12.844,0,0,1,37.181,36.046ZM50.772,55.087a20.61,20.61,0,0,1-9.439-2.028l1.609-6.5a17.859,17.859,0,0,0,7.83,2.2c2.738,0,3.875-.953,3.875-2.45s-.895-2.2-4.293-3.34c-6.028-2.028-8.361-5.313-8.3-8.775,0-5.426,4.657-9.556,11.881-9.556a19.641,19.641,0,0,1,8.236,1.672L60.558,32.58a14.279,14.279,0,0,0-6.329-1.668c-2.2,0-3.453.895-3.453,2.387,0,1.371,1.125,2.086,4.707,3.344,5.552,1.906,7.884,4.716,7.939,9C63.422,51.087,59.116,55.087,50.772,55.087Z" transform="translate(0 -0.002)" fill="#fff"/>
  </g>
</svg>
