<?xml version="1.0" encoding="utf-8"?>
<!-- Generator: Adobe Illustrator 26.3.1, SVG Export Plug-In . SVG Version: 6.00 Build 0)  -->
<svg version="1.1" id="bootstrap-5-logo-icon" xmlns="http://www.w3.org/2000/svg" xmlns:xlink="http://www.w3.org/1999/xlink"
	 x="0px" y="0px" viewBox="0 0 91.6 73" style="enable-background:new 0 0 91.6 73;" xml:space="preserve">
<style type="text/css">
	.st0{fill:#FFFFFF;}
</style>
<g>
	<path class="st0" d="M46.2,38.2H38V51l8.5,0c5.6,0,8.5-2.2,8.5-6.4S52,38.2,46.2,38.2z"/>
	<path class="st0" d="M53.2,27.6c0-3.6-2.5-5.6-7-5.6H38l0,11.6h6.9C50.3,33.6,53.2,31.5,53.2,27.6z"/>
	<polygon class="st0" points="10.1,9.5 10.1,9.5 10.1,9.5 	"/>
	<path class="st0" d="M83.1,25.5c-1.6-5-1.8-11.2-1.6-16c0-0.1,0-0.1,0-0.2c0.1-5-3.9-9.2-8.9-9.3H19c-0.1,0-0.1,0-0.2,0
		c-5,0.2-8.9,4.5-8.7,9.5c0.2,4.8,0,10.9-1.6,16S4.3,33.8,0,34.2v4.7c4.3,0.4,6.9,3.6,8.5,8.7c1.5,5,1.8,11.2,1.6,16
		c0,0.1,0,0.1,0,0.2C10,68.7,14,72.9,19,73h53.6c0.1,0,0.1,0,0.2,0c5-0.2,8.9-4.5,8.7-9.5c-0.2-4.8,0-10.9,1.6-16
		c1.6-5.1,4.2-8.2,8.5-8.7v-4.7C87.3,33.8,84.7,30.6,83.1,25.5z M47.8,55.9h-16V17.1h15.9c7.1,0,11.7,3.8,11.7,9.7
		c0,4.1-3,7.7-7.1,8.5v0.2c5.4,0.6,9,4.3,9,9.5C61.4,51.8,56.3,55.9,47.8,55.9z"/>
</g>
</svg>
