<?xml version="1.0" encoding="utf-8"?>
<!-- Generator: Adobe Illustrator 26.3.1, SVG Export Plug-In . SVG Version: 6.00 Build 0)  -->
<svg version="1.1" id="레이어_1" xmlns="http://www.w3.org/2000/svg" xmlns:xlink="http://www.w3.org/1999/xlink" x="0px"
	 y="0px" viewBox="0 0 64.4 73" style="enable-background:new 0 0 64.4 73;" xml:space="preserve">
<style type="text/css">
	.st0{fill:#FFFFFF;}
</style>
<path class="st0" d="M0,0l5.9,65.7L32.1,73l26.4-7.3L64.4,0H0z M52.2,15l-1.9,21.9h0l-1.4,15.7l-0.1,1.4l-16.5,4.6v0l0,0l-16.5-4.6
	l-1.1-12.7h8.1l0.6,6.4l9,2.4l0,0v0l9-2.4l0.9-10.5h-9.9h-8.9l-0.2-1.8l-0.4-4.1l-0.2-2.2h9.6h10.7l0.7-8.3H32.2h0H12.7l-0.2-1.8
	L12.2,15L12,12.9h20.2h0h20.2L52.2,15z"/>
</svg>
