<svg xmlns="http://www.w3.org/2000/svg" width="97.401" height="73.011" viewBox="0 0 97.401 73.011">
  <g id="sass-icon" transform="translate(-55.998 -32.999)">
    <path id="패스_32" data-name="패스 32" d="M83.845,41.923a20.09,20.09,0,0,0-8.83,2.053,18.466,18.466,0,0,1-1.982-4.566,12.627,12.627,0,0,1-.174-3.844,30.579,30.579,0,0,1,1.157-4.146c-.016-.174-.206-1.007-2.172-1.03s-3.654.38-3.844.9a21.9,21.9,0,0,0-.816,2.909c-.341,1.791-3.916,8.125-5.953,11.454A11.551,11.551,0,0,1,59.884,42.3a12.627,12.627,0,0,1-.174-3.844,30.578,30.578,0,0,1,1.157-4.146c-.016-.174-.206-1.007-2.172-1.03s-3.654.38-3.844.9-.4,1.728-.816,2.909c-.4,1.181-5.152,11.755-6.389,14.513-.626,1.411-1.181,2.529-1.577,3.289s-.016.055-.055.135c-.341.65-.531,1.007-.531,1.007v.016c-.27.476-.555.935-.682.935a6.348,6.348,0,0,1,.04-3.028c.705-3.67,2.418-9.4,2.394-9.607,0-.1.325-1.1-1.1-1.617a1.73,1.73,0,0,0-2,.341c-.111,0-.206.3-.206.3s1.538-6.452-2.949-6.452c-2.814,0-6.7,3.06-8.616,5.858l-6.547,3.575c-1.046.571-2.132,1.181-3.155,1.728l-.206-.23C17.01,42.073,6.943,37.967,7.363,30.168,7.514,27.33,8.5,19.855,26.7,10.8c14.894-7.419,26.823-5.382,28.9-.856,2.949,6.468-6.373,18.492-21.861,20.22-5.9.666-9-1.617-9.781-2.473-.816-.9-.935-.935-1.237-.761-.491.269-.19,1.062,0,1.538.46,1.2,2.362,3.329,5.6,4.391,2.838.935,9.757,1.443,18.128-1.791,9.377-3.63,16.7-13.721,14.553-22.146C58.806.357,44.578-2.465,31.127,2.314,23.121,5.168,14.441,9.622,8.2,15.464.784,22.384-.4,28.432.095,30.945c1.728,8.965,14.077,14.8,19.023,19.119-.246.135-.476.269-.682.38C15.963,51.664,6.547,56.587,4.185,61.8c-2.663,5.9.42,10.146,2.473,10.717,6.357,1.768,12.865-1.411,16.384-6.642,3.5-5.231,3.083-12.024,1.466-15.124l-.055-.111L26.394,49.5c1.252-.745,2.489-1.427,3.575-2.013a23.69,23.69,0,0,0-1.276,6.468c-.269,3.345,1.1,7.689,2.909,9.4a3.208,3.208,0,0,0,2.338.761c2.093,0,3.044-1.728,4.09-3.8,1.292-2.529,2.433-5.461,2.433-5.461s-1.427,7.934,2.473,7.934c1.427,0,2.854-1.847,3.5-2.8V60a1.884,1.884,0,0,0,.111-.19c.079-.119.159-.238.23-.365v-.04c.571-.991,1.847-3.25,3.749-7,2.457-4.835,4.811-10.883,4.811-10.883a34.818,34.818,0,0,0,.935,3.916,37.564,37.564,0,0,0,2.037,4.566c-.571.8-.912,1.252-.912,1.252l.016.016c-.46.61-.967,1.252-1.506,1.9C53.97,55.5,51.648,58.14,51.347,58.9a1.562,1.562,0,0,0,.42,2.093,3.782,3.782,0,0,0,2.394.38,10.716,10.716,0,0,0,3.575-.816,12.341,12.341,0,0,0,3.083-1.617,6.878,6.878,0,0,0,2.949-6.072,12.071,12.071,0,0,0-1.126-4.28c.174-.246.341-.491.515-.761A80.26,80.26,0,0,0,68.484,38.6a34.816,34.816,0,0,0,.935,3.916,28.351,28.351,0,0,0,1.728,3.916,16.9,16.9,0,0,0-5.192,6.714c-1.126,3.234-.246,4.7,1.411,5.041a5.1,5.1,0,0,0,2.608-.531,11.642,11.642,0,0,0,3.289-1.7c1.9-1.411,3.725-3.369,3.63-6.008a11.511,11.511,0,0,0-.816-3.559,18.507,18.507,0,0,1,9.432-1.086c8.465.991,10.138,6.278,9.821,8.481a5.705,5.705,0,0,1-2.679,3.8c-.587.365-.777.491-.721.761.079.4.341.38.856.3a6.578,6.578,0,0,0,4.605-5.881c.23-5.2-4.74-10.907-13.546-10.851ZM18.555,63.934c-2.8,3.06-6.737,4.225-8.41,3.234-1.807-1.046-1.1-5.556,2.338-8.806a44.641,44.641,0,0,1,6.6-4.93c.4-.246,1.007-.61,1.728-1.046a1.016,1.016,0,0,1,.19-.111c.135-.079.285-.174.436-.269a12.131,12.131,0,0,1-2.885,11.929Zm20.45-13.9c-.967,2.378-3.028,8.489-4.264,8.14-1.062-.285-1.712-4.906-.206-9.472a21.125,21.125,0,0,1,3.329-6.1c1.538-1.712,3.218-2.283,3.63-1.577.5.9-1.879,7.522-2.489,9.012Zm16.875,8.061c-.42.206-.8.365-.967.246-.135-.079.174-.365.174-.365s2.108-2.267,2.949-3.313c.476-.61,1.046-1.316,1.657-2.108v.23c-.008,2.743-2.632,4.574-3.813,5.311ZM68.9,55.128c-.3-.23-.269-.935.761-3.139a11.759,11.759,0,0,1,2.893-3.725,4.8,4.8,0,0,1,.285,1.633A5.359,5.359,0,0,1,68.9,55.128Z" transform="translate(56 33)" fill="#fff" fill-rule="evenodd"/>
  </g>
</svg>
