<svg id="bem-svgrepo-com" xmlns="http://www.w3.org/2000/svg" width="88.483" height="73.011" viewBox="0 0 88.483 73.011">
  <path id="패스_79" data-name="패스 79" d="M0,11.3H20.686v6.084H0ZM0,0H20.686V6.084H0ZM37.114,22.512H0V28.6H35.723c3.911,0,13.038.087,16.427,5.563v-3.39c-1.651-5.389-6.519-8.257-15.037-8.257Zm.087,11.3H0V39.9H35.723c8.692,0,14.168.348,16.427,1.565V38.765c-1.738-4.259-9.039-4.954-14.95-4.954Zm-.087,28.683H0V56.41H35.723c3.911,0,13.038-.087,16.427-5.563v3.39c-1.651,5.389-6.519,8.257-15.037,8.257Zm.087-11.3H0V45.111H35.723c8.692,0,14.168-.348,16.427-1.565V46.24c-1.738,4.259-9.039,4.954-14.95,4.954ZM61.19,73.011H88.483V69.274H61.973c-2.347,0-7.91-.087-9.909-3.3v2.086c.956,3.216,3.911,4.954,9.126,4.954ZM61.1,66.145H88.4V62.407H61.973c-5.3,0-8.6-.174-9.909-.956V63.1c1.043,2.607,5.476,3.042,9.039,3.042Z" fill="#fff"/>
</svg>
