<svg xmlns="http://www.w3.org/2000/svg" width="73.013" height="73.011" viewBox="0 0 73.013 73.011">
  <g id="brand" transform="translate(-2 -2)">
    <g id="git" transform="translate(2 2)">
      <path id="Shape" d="M73.635,35.254,41.757,3.377a4.7,4.7,0,0,0-6.65,0L28.489,10l8.4,8.4a5.583,5.583,0,0,1,7.071,7.119l8.094,8.093A5.589,5.589,0,1,1,48.7,36.761L41.15,29.213V49.075a5.594,5.594,0,1,1-6.433,1.058,5.593,5.593,0,0,1,1.833-1.221V28.866a5.595,5.595,0,0,1-3.037-7.337L25.235,13.25,3.377,35.107a4.705,4.705,0,0,0,0,6.651L35.256,73.635a4.7,4.7,0,0,0,6.65,0L73.635,41.905a4.7,4.7,0,0,0,0-6.651" transform="translate(-2 -2)" fill="#fff" fill-rule="evenodd"/>
    </g>
  </g>
</svg>
