<svg xmlns="http://www.w3.org/2000/svg" width="61.953" height="73.011" viewBox="0 0 61.953 73.011">
  <path id="greensock-svgrepo-com" d="M37.31,72.966a5.346,5.346,0,0,1-2.5-1.113,2.141,2.141,0,0,1-.6-1.485,4.652,4.652,0,0,1,.738-2.122,6.709,6.709,0,0,0,.637-1.418,10.761,10.761,0,0,1,.448-1.272l.277-.646.073-4.379c.04-2.409.113-4.653.162-4.995a15.064,15.064,0,0,1,.771-2.933l.256-.637-.375-.223a8.505,8.505,0,0,1-1.769-1.854,8.434,8.434,0,0,0-5.818-2.866q-1.278-.121-2.561-.174c-3.818-.177-5.995-.973-7.959-2.9a8.8,8.8,0,0,1-2.54-5.6c-.421-3.348-.884-5.071-1.738-6.464a6.205,6.205,0,0,0-.723-.961l-.348-.345-.762.488c-.424.268-1,.619-1.29.778a25.312,25.312,0,0,0-2.732,1.741,54.316,54.316,0,0,0-5.723,4.763c-.573.573-.875.814-1,.8-.878-.131-.2-3.9,1.208-6.739a24.258,24.258,0,0,1,8.392-9.3,82.937,82.937,0,0,1,9.745-5.345,112.729,112.729,0,0,1,12.228-4.278,4.69,4.69,0,0,0,1.454-.579,3.611,3.611,0,0,1,2.077-.7,1.723,1.723,0,0,0,1.3-.427,1.429,1.429,0,0,1,1.64-.244l.47.168.57-.387.573-.387.823.018a2.642,2.642,0,0,0,1.18-.14c.348-.152.36-.171.457-.747a6.8,6.8,0,0,0,.113-2.6,30.216,30.216,0,0,1-.024-5.577c.18-.811.3-.973.9-1.272A6.1,6.1,0,0,1,48.482.028c1.9,0,2.866.256,3.58.945.646.628.756,2.073.418,5.489a21.785,21.785,0,0,0-.168,3.793c.03.826.082,1.6.113,1.711.052.2.1.21.79.226a2.336,2.336,0,0,1,1.436.381,2.52,2.52,0,0,1,1.177.991c.018.061.122.064.317.009a.838.838,0,0,1,.942.332c.156.2.253.238.619.238.488,0,.659.116,1.064.714a1.823,1.823,0,0,0,.75.61,5.148,5.148,0,0,1,1.921,1.994,4.929,4.929,0,0,1,.308,3.519c-.122.427-.122.442.128.86a4.064,4.064,0,0,1,.509,2.909l-.125.549.36.357c1.778,1.778,1.515,4.668-.656,7.257a4.156,4.156,0,0,0-.6.97,7.093,7.093,0,0,1-1.522,2.525l-.622.64h-.653a5.134,5.134,0,0,1-2.089-.5c-.229-.119-.244-.116-.2.03A37.478,37.478,0,0,1,56.9,40.4a22.31,22.31,0,0,1-.122,5.577,8.691,8.691,0,0,1-.906,2.394,1.082,1.082,0,0,0-.2.927,6.4,6.4,0,0,1-.351,2.479,8.514,8.514,0,0,0-.506,1.665c-.061.372-.061.375.2.375.351,0,.534.207.534.607,0,.183-.152,1.14-.342,2.134a22.325,22.325,0,0,0-.561,5.778c-.009,2.772-.012,2.75.622,3.162l1.415.921a19.423,19.423,0,0,0,3.891,2c1.991.787,2.266.988,2.266,1.659a.732.732,0,0,1-.3.643c-.768.741-2.269.906-5.3.585q-2.357-.224-4.726-.229c-4.162-.061-4.778-.2-5.321-1.244a3.355,3.355,0,0,1,.18-2.647q.291-.841.5-1.708a9.215,9.215,0,0,0-.573-4.891l-.564-1.58c-.567-1.61-.872-4.556-.537-5.22.061-.122.165-.152.445-.134l.363.03.293-.622a5.047,5.047,0,0,1,1.159-1.488l.869-.872-.043-.555a17.66,17.66,0,0,0-.842-3.125,3.743,3.743,0,0,0-.439.595,11.357,11.357,0,0,1-2.336,2.446c-.287.2-.524.418-.524.494a3.18,3.18,0,0,1-.613,1.387c-.323.436-.345.5-.3.884a14.4,14.4,0,0,1-.317,3.293,10.617,10.617,0,0,1-.784,2.028,24.437,24.437,0,0,0-1.6,3.934,16.876,16.876,0,0,0-.207,2.052,11.032,11.032,0,0,1-.183,1.759,1.212,1.212,0,0,0-.006.75,6.787,6.787,0,0,1,.082,1.25,5.741,5.741,0,0,0,.213,1.72,4.938,4.938,0,0,1,.223,2.427.8.8,0,0,1-.506.549,8.5,8.5,0,0,1-3.839.375Zm2.9-.97a1.012,1.012,0,0,0,.768-.8,4.138,4.138,0,0,0-.265-.933,17.854,17.854,0,0,1-.775-2.86c0-.165.012-.168.259-.037l.259.137-.006-.335a4.043,4.043,0,0,0-.2-.9c-.226-.68-.256-.7-1.689-.775l-.982-.052-.351.345a3.141,3.141,0,0,0-.515.671c-.159.314-.22.778-.116.884a1.334,1.334,0,0,0,.518-.061,2.3,2.3,0,0,1,.473-.088,6.29,6.29,0,0,1-.585.46c-1.433,1.061-1.93,1.72-1.93,2.552,0,.872.811,1.549,2.1,1.75A11.892,11.892,0,0,0,40.206,72Zm19.375-1.418c.357-.433.314-.869-.14-1.372a3.729,3.729,0,0,0-.89-.671,11.185,11.185,0,0,1-1-.595c-.262-.183-1.1-.671-1.866-1.1q-.82-.438-1.607-.933l-.213-.168V62.465c0-3.232-.006-3.272-.177-3.226a15.575,15.575,0,0,1-3.97.3l-1.887-.03.268.665a13.432,13.432,0,0,1,.771,4.9,3.656,3.656,0,0,1-.223,1.5q-.138.378-.265.759c-.034.107.1.183.592.329a7.971,7.971,0,0,0,1.18.25l.543.055-.055.552A2.779,2.779,0,0,0,50.806,70c.088.116.454.159,2.1.238,1.256.061,2.616.189,3.687.348.93.137,1.93.256,2.226.259.494.009.549-.009.759-.262ZM40.518,65a6.833,6.833,0,0,0,.143-1.436,9.566,9.566,0,0,1,1.25-4.845,12.667,12.667,0,0,0,1.3-5.1l-.024-.775-.326.323c-.692.686-.216-.4.6-1.363a3.3,3.3,0,0,0,.936-1.79c.043-.262.143-.4.549-.7a10.3,10.3,0,0,0,3.363-4.461c.171-.43.6-1.891.961-3.251a16.949,16.949,0,0,1,1.342-4.065c.122-.18.168-.207.137-.088a17.66,17.66,0,0,0-.4,1.942c-.1.582-.274,1.72-.39,2.525a16.082,16.082,0,0,1-.8,3.488l-.213.543.576,1.479a11.721,11.721,0,0,1,.921,3.674l.03.585-.47.1a2.391,2.391,0,0,0-1.515.957c-.415.579-.634,1.061-.528,1.171a6.549,6.549,0,0,0,1.3.229,12.127,12.127,0,0,0,2.8.04A17.473,17.473,0,0,0,53.834,54c.128-.046.253-.308.47-.985a7.467,7.467,0,0,0,.531-3.2l-.049-.967.25-.32a7.661,7.661,0,0,0,1.22-3.629,34.337,34.337,0,0,0-.961-9.337,16.273,16.273,0,0,1-.518-3.324v-.631l-.589.061A22.587,22.587,0,0,1,48,31.518a30.091,30.091,0,0,1-3.446-1l-.363-.162-.052.412a6.381,6.381,0,0,1-.122.689c-.07.259-.043.311.4.75.549.549.72.842.72,1.226,0,.229-.137.421-.8,1.119a10.47,10.47,0,0,1-1.586,1.369l-.781.524-.323,1.147c-1.2,4.238-1.427,8.077-.64,10.837l.2.689-.381.473a11.763,11.763,0,0,0-2.4,3.934c-.024.152-.146.656-.268,1.119a26.258,26.258,0,0,0-.646,4.775q-.117,2.349-.317,4.693l-.052.463.595.183a9.471,9.471,0,0,0,1.119.265A4.912,4.912,0,0,0,40.521,65Zm11.566-6.55a5.756,5.756,0,0,0,1.936-.335,1.112,1.112,0,0,0,.183-.549l.052-.451-.732.162a15.634,15.634,0,0,1-1.759.238,28.888,28.888,0,0,1-4.214-.122c-.463-.07-.467-.067-.314.54.113.457.137.47,1.357.564a27.2,27.2,0,0,0,3.491-.046Zm-.778-2.073a14.1,14.1,0,0,0,3.019-.518.633.633,0,0,0,.22-.424l.11-.634.055-.3-.293.061a18.7,18.7,0,0,1-4.33.36,7.444,7.444,0,0,1-2.683-.192,1.838,1.838,0,0,0-.628-.146,2.736,2.736,0,0,0-.015,1.2c.046.29.091.338.381.421a13.661,13.661,0,0,0,4.165.168ZM29.2,45.63c3.049-.872,7.038-3.467,10.3-6.7,1.067-1.061,1.189-1.211,1.333-1.677l.2-.607c.021-.049-.171-.137-.421-.2-.659-.159-1.15-.531-1.156-.878,0-.2-.122-.4-.457-.778a2.241,2.241,0,0,1-.771-1.515l-.049-.482-.659-.482a34.4,34.4,0,0,0-3.135-1.723q-1.618-.791-3.168-1.711a6.267,6.267,0,0,1-2.439-2.888,1.04,1.04,0,0,0-.229-.421c-.1,0-2.775,2.592-3.921,3.8a35.618,35.618,0,0,0-5.989,7.959c-.3.595-.64,1.3-.738,1.558l-.183.479.223.793a10.145,10.145,0,0,0,.61,1.555,6.381,6.381,0,0,0,3.122,3.095A10.573,10.573,0,0,0,27,45.84a7.153,7.153,0,0,0,2.2-.213ZM5.134,35.192a55.088,55.088,0,0,1,8.154-5.739c2.217-1.32,10.773-5.6,14.716-7.361.714-.32,1.36-.613,1.433-.656a4.456,4.456,0,0,0,.46-1.125c.842-2.65,1.256-3.174,2.769-3.516.192-.043.238-.1.238-.3a4.308,4.308,0,0,1,.442-1.5c.152-.274.156-.29.015-.25-.082.027-.579.171-1.107.323a73.269,73.269,0,0,0-19.088,8.361C7.311,27.151,3.951,31.6,2.972,36.936l-.073.4.707-.7c.387-.387,1.076-1.034,1.528-1.433Zm53.9,1.006a5.761,5.761,0,0,0,1.82-2.75,2.476,2.476,0,0,1,.555-1.031,6.9,6.9,0,0,0,1.622-3.976c0-1.891-1.064-2.619-2.632-1.805a.963.963,0,0,1-.387.146c-.088-.088.357-.518.884-.854.71-.457.845-.732.845-1.726a3.866,3.866,0,0,0-.686-2.235c-.213-.32-.3-.54-.265-.665l.22-.805a4.169,4.169,0,0,0-.268-3.04,3.28,3.28,0,0,0-2.726-1.836l-.686-.052.409.448a5.384,5.384,0,0,1,1.549,4.33c-.119.707-.235.854-.924,1.134l-.4.162.046.546a4.785,4.785,0,0,1-.646,2.76,5.987,5.987,0,0,0-.479,1.2,3.015,3.015,0,0,0,1.473.744l.61.146-.381.122c-.491.162-.6.384-.607,1.211a2.724,2.724,0,0,0,.662,1.878,2.6,2.6,0,0,1,.439.939c.046.338.03.36-.244.46a4.635,4.635,0,0,1-.945.152c-1.119.07-1.2.1-1.7.579-.457.436-.467.46-.467.936a6.43,6.43,0,0,0,.4,2.147,5.628,5.628,0,0,0,1.769.863A1.659,1.659,0,0,0,59.036,36.2Zm-16.5-.9a7.637,7.637,0,0,0,1.622-1.631c.2-.3.21-.357.11-.6A5.678,5.678,0,0,0,42.408,31.4a4.461,4.461,0,0,0-1.275-.366l-.75-.1-.47-.585a14.557,14.557,0,0,1-2.263-3.909,8.959,8.959,0,0,0-2.174-3.3,4.346,4.346,0,0,1-.628-.656c.037,0,.491.223,1.015.5.878.46.979.494,1.375.445,1.418-.171,2.662-1.8,3.122-4.086a4.8,4.8,0,0,1,.665-1.7c.012-.015.555.351,1.2.814,1.628,1.159,1.988,1.329,2.912,1.366a6.366,6.366,0,0,0,2.049-.287,19.572,19.572,0,0,1,6.4-.589,12.025,12.025,0,0,1,3.049.933c.918.427,1.095.451,1.394.189.244-.213.247-.244.244-1.043a5.233,5.233,0,0,0-1.1-3.211,9.026,9.026,0,0,0-2.2-1.528q-.5-.264-1-.543c-.433-.253-.942-.223-2.293.134a5.665,5.665,0,0,1-3.79-.055,5.327,5.327,0,0,0-3.116-.162,13.176,13.176,0,0,1-3.47-.125q-.5-.138-.991-.317a5.4,5.4,0,0,0-2.506-.091,4.618,4.618,0,0,0-3.714,2.653c-.256.683-.223,1,.128,1.223a3.312,3.312,0,0,1,1.268,1.647c0,.03-.171-.125-.381-.345A2.045,2.045,0,0,0,33.6,17.54a1.891,1.891,0,0,0-1.677,1.1,11.728,11.728,0,0,0-.406,1.281,7.154,7.154,0,0,1-1.256,2.72,1.939,1.939,0,0,0-.445,1.985c.5,2.192,1.366,3.083,5,5.141a34.572,34.572,0,0,1,3.6,2.223c.546.406.561.427.512.741a2.334,2.334,0,0,0,1.238,2.119c.229.159.372.326.372.436,0,.22.6.518,1.046.518.244,0,.442-.1.954-.506ZM57.221,31.3c1.384.04,1.461-.058.717-.918a2.3,2.3,0,0,1-.7-2.421l.113-.311-.485-.238a3.558,3.558,0,0,0-.5-.22q-.13.47-.241.945a21.79,21.79,0,0,0-.4,3.415c0,.07.116.04.32-.085.281-.168.427-.189,1.174-.168Zm-4.629-.076c.832-.046,1.7-.11,1.921-.14l.409-.055.052-1.378a11.191,11.191,0,0,1,1.2-4.946,6.268,6.268,0,0,0,.732-3.311c-.055-.372-.076-.4-.573-.613A13.1,13.1,0,0,0,53.483,20a22.82,22.82,0,0,0-4.742.137c-.427.079-1.211.244-1.738.369a4.051,4.051,0,0,1-2.976-.168,7.253,7.253,0,0,1-2.186-1.366c-.46-.43-.5-.451-.628-.308a2.488,2.488,0,0,0-.174,1.122,4.174,4.174,0,0,1-.671,2.369,2.537,2.537,0,0,0-.262.488,8.4,8.4,0,0,0,.805.9c1.522,1.586,2.269,1.994,3.47,1.9.4-.03.671-.018.671.03a4.661,4.661,0,0,1-1.1.872c-.146.076-.183.162-.159.345l.183,1.244c.11.72.2,1.046.3,1.143a16.6,16.6,0,0,0,2.683,1.378,8.582,8.582,0,0,0,2.818.753,13.713,13.713,0,0,0,2.811,0Zm-9.849-1.3a10.541,10.541,0,0,0-.213-1.531c-.192-1.086-.3-1.479-.418-1.58-.091-.073-.528-.39-.973-.7A16.781,16.781,0,0,1,39.5,24.724l-.826-.805-.433.229-.47.253a2.135,2.135,0,0,0,.2.537c.122.284.384.985.579,1.555a10.171,10.171,0,0,0,1.878,3.5l.378.491.7.11a7.434,7.434,0,0,1,.887.18c.171.064.192.037.244-.351a2.3,2.3,0,0,1,.1-.506ZM57.831,15.1c.61-.058.714-.152.448-.421a.831.831,0,0,0-.854-.037c-.207.095-.25.073-.57-.274-.335-.372-.354-.381-.775-.329-.381.046-.439.03-.488-.125a3.287,3.287,0,0,0-.549-.689,2.567,2.567,0,0,0-.991-.7,1.854,1.854,0,0,0-1.857.137c-2.034,1.113-1.952,1.1-3.912.6a15.612,15.612,0,0,1-3.65-1.241,4.969,4.969,0,0,0-1.808-.61,1.439,1.439,0,0,0-1.268.427l-.244.2.22.39c.311.552.281.582-.189.183a2.709,2.709,0,0,0-1.479-.717,2.57,2.57,0,0,0-1.18.512c-.027.043.223.1.552.131a4.213,4.213,0,0,1,1.147.284,5.964,5.964,0,0,0,2.025.549,7.747,7.747,0,0,0,2.525-.162c.088-.076.351-.088.9-.046a12.6,12.6,0,0,1,2.753.589,4.745,4.745,0,0,0,2.894-.079,12.614,12.614,0,0,1,1.528-.335c.488-.052.585-.03,1.342.314a9.516,9.516,0,0,1,2.22,1.22c.357.3.4.314,1.259.232Zm-6.794-2.086.726-.378-.015-.747q-.018-.755-.067-1.509l-.052-.765-.726.561a3.462,3.462,0,0,1-1.034.619,15.579,15.579,0,0,1-3.342-.128,7.044,7.044,0,0,1-.887-.79L44.969,9.2l-.009.4a5.932,5.932,0,0,1-.073.817c-.067.421-.061.433.4,1.015a5.1,5.1,0,0,1,.463.646,14.655,14.655,0,0,0,4.214,1.311A2.542,2.542,0,0,0,51.037,13.012ZM49.659,10.3c.86-.165,1.281-.787,1.595-2.357a21.734,21.734,0,0,0,.345-5.48c-.143-1.018-1.278-1.479-3.464-1.406-1.354.046-1.915.18-2.375.57-.287.244-.293.265-.418,1.394a14.307,14.307,0,0,0,.732,6.419,1.343,1.343,0,0,0,1.113.854,9.731,9.731,0,0,0,2.473.006Z" transform="translate(-1.841 -0.028)" fill="#fff"/>
</svg>
