<?xml version="1.0" encoding="utf-8"?>
<!-- Generator: Adobe Illustrator 26.3.1, SVG Export Plug-In . SVG Version: 6.00 Build 0)  -->
<svg version="1.1" id="html-icon" xmlns="http://www.w3.org/2000/svg" xmlns:xlink="http://www.w3.org/1999/xlink" x="0px" y="0px"
	 viewBox="0 0 64.4 73" style="enable-background:new 0 0 64.4 73;" xml:space="preserve">
<style type="text/css">
	.st0{fill-rule:evenodd;clip-rule:evenodd;fill:#FFFFFF;}
</style>
<path class="st0" d="M0,0l5.9,65.7L32.2,73l26.4-7.3L64.4,0H0z M52.2,15.6l-0.4,4.1l-0.2,1.8H32.2h0H20.8l0.7,8.3h10.6v0h18.7
	l-0.2,2.2l-1.9,21.2l-0.1,1.4l-16.5,4.6v0l0,0l-16.5-4.6l-1.1-12.7h8.1h0l0.6,6.4l9,2.4l0,0v0l9-2.4l0.9-10.5h-9.9h0h-18l-2-22.2
	L12,13.4h20.2v0h20.2L52.2,15.6z"/>
</svg>
