<?xml version="1.0" encoding="utf-8"?>
<!-- Generator: Adobe Illustrator 26.3.1, SVG Export Plug-In . SVG Version: 6.00 Build 0)  -->
<svg version="1.1" id="javascript-programming-language-icon"
	 xmlns="http://www.w3.org/2000/svg" xmlns:xlink="http://www.w3.org/1999/xlink" x="0px" y="0px" viewBox="0 0 73 73"
	 style="enable-background:new 0 0 73 73;" xml:space="preserve">
<style type="text/css">
	.st0{fill-rule:evenodd;clip-rule:evenodd;fill:#FFFFFF;}
</style>
<path class="st0" d="M0,0v73h73V0H0z M39.7,56.9c0,7.1-4.2,10.3-10.2,10.3c-5.5,0-8.7-2.8-10.3-6.3l0,0l5.6-3.4
	c1.1,1.9,2.1,3.5,4.4,3.5c2.3,0,3.7-0.9,3.7-4.3V33.5h6.9V56.9z M55.9,67.3c-6.4,0-10.5-3-12.5-7l0,0L49,57c1.5,2.4,3.4,4.2,6.8,4.2
	c2.8,0,4.7-1.4,4.7-3.4c0-2.4-1.9-3.2-5-4.6l-1.7-0.7c-4.9-2.1-8.2-4.8-8.2-10.3c0-5.1,3.9-9.1,10-9.1c4.4,0,7.5,1.5,9.8,5.5L60,42
	c-1.2-2.1-2.4-2.9-4.4-2.9c-1.6-0.2-3.1,1-3.3,2.7c0,0.1,0,0.2,0,0.3c0,2.1,1.3,2.9,4.2,4.2l1.7,0.7c5.8,2.5,9.1,5,9.1,10.8
	C67.3,63.9,62.5,67.3,55.9,67.3z"/>
</svg>
