<?xml version="1.0" encoding="utf-8"?>
<!-- Generator: Adobe Illustrator 26.3.1, SVG Export Plug-In . SVG Version: 6.00 Build 0)  -->
<svg version="1.1" id="레이어_1" xmlns="http://www.w3.org/2000/svg" xmlns:xlink="http://www.w3.org/1999/xlink" x="0px"
	 y="0px" viewBox="0 0 56.6 56" style="enable-background:new 0 0 56.6 56;" xml:space="preserve">
<style type="text/css">
	.st0{fill-rule:evenodd;clip-rule:evenodd;fill:#FFFFFF;}
</style>
<g id="jquery-svgrepo-com" transform="translate(-0.981 -0.078)">
	<g id="그룹_17" transform="translate(0.981 0.078)">
		<g id="그룹_16" transform="translate(0 5.882)">
			<path id="패스_49" class="st0" d="M55.2,35.7L55,36.4c-4.3,8.4-12,13.6-22.9,13.8c-4.5,0.1-9-0.8-13.1-2.6
				c-6.7-3.1-12.3-8.3-15.8-14.9c-4.5-8.7-5.3-20.9,4.1-30c0.1,0-1.1,2-1,2L6.1,5.5c-6.8,21.2,14.1,39.3,34.3,37.2
				C45.9,42,51.2,39.6,55.2,35.7"/>
			<path id="패스_50" class="st0" d="M43,27c5.1,0,10-2.1,13.6-5.7c-2.8,7-10.7,11.5-21.4,10.1c-9-1.2-17.5-10.2-18.4-19.3
				c-0.6-6.6,1.6-10.5,5.4-15.3c-1,1.7-1.6,3.7-1.9,5.6C18.8,16.7,31.6,26.9,43,27"/>
			<path id="패스_51" class="st0" d="M56,9.3c-0.8,1.8-5.4,5.2-7.4,5.7c-8,1.7-13.1-2.1-15.8-6.4c-0.5-0.9-0.9-1.9-1.3-2.8
				c-1-3.5-0.6-8.9,2.5-11.6c-0.9,2.5-1.1,5.1-0.6,7.7c0.5,1.6,1.2,3.2,2.1,4.6c1.2,1.8,2.9,3.3,4.8,4.3c0.8,0.5,1.6,0.9,2.4,1.2
				C45,12.4,49.2,13.9,56,9.3"/>
		</g>
	</g>
</g>
</svg>
