<svg xmlns="http://www.w3.org/2000/svg" width="138.794" height="73.011" viewBox="0 0 138.794 73.011">
  <path id="php-svgrepo-com" d="M40.539,31.822H35.08L32.1,47.135h4.846q4.823,0,7.183-1.816t3.181-6.066q.8-4.077-.717-5.754C45.582,32.383,43.57,31.822,40.539,31.822ZM69.4,5.688C31.072,5.688,0,22.031,0,42.191S31.072,78.7,69.4,78.7s69.4-16.349,69.4-36.508S107.721,5.688,69.4,5.688ZM50.544,48.778a14.035,14.035,0,0,1-5.3,3.186,24.71,24.71,0,0,1-7.431.948H30.98l-1.891,9.721H21.12L28.233,26.05H43.558q6.914,0,10.086,3.632t1.908,10.132a15.942,15.942,0,0,1-5.008,8.964Zm23.271,4.135,3.14-16.187c.364-1.839.226-3.1-.393-3.765s-1.943-1.006-3.973-1.006H66.274L62.2,52.918H54.291L61.4,16.329H69.31l-1.891,9.727h7.044q6.653,0,9.172,2.319t1.521,7.512L81.848,52.913Zm43.934-13.1a16.089,16.089,0,0,1-1.764,4.9,16.516,16.516,0,0,1-3.244,4.065,14.111,14.111,0,0,1-5.3,3.186,24.724,24.724,0,0,1-7.437.948H93.177L91.286,62.64H83.317L90.43,26.056h15.319q6.914,0,10.086,3.632t1.914,10.126Zm-15.007-7.992H97.289L94.3,47.135h4.846q4.832,0,7.183-1.816t3.186-6.066c.532-2.718.283-4.638-.723-5.754s-3.03-1.677-6.055-1.677Z" transform="translate(0 -5.688)" fill="#fff"/>
</svg>
