<?xml version="1.0" encoding="utf-8"?>
<!-- Generator: Adobe Illustrator 26.3.1, SVG Export Plug-In . SVG Version: 6.00 Build 0)  -->
<svg version="1.1" id="레이어_1" xmlns="http://www.w3.org/2000/svg" xmlns:xlink="http://www.w3.org/1999/xlink" x="0px"
	 y="0px" viewBox="0 0 78.3 73.1" style="enable-background:new 0 0 78.3 73.1;" xml:space="preserve">
<style type="text/css">
	.st0{fill:#FFFFFF;}
</style>
<path class="st0" d="M73.1,33.9c0-1.6-0.6-3.2-1.8-4.4c-2.4-2.4-6.3-2.4-8.8,0H49.8l8.9-8.9c3.4,0,6.2-2.8,6.2-6.2
	c0-3.4-2.8-6.2-6.2-6.2c-3.4,0-6.2,2.8-6.2,6.2l-9,9V10.6c2.4-2.4,2.4-6.3,0-8.8c-2.4-2.4-6.3-2.4-8.8,0c-2.4,2.4-2.4,6.3,0,8.8
	v12.6l-8.9-8.9c0-3.4-2.8-6.2-6.2-6.2c-3.4,0-6.2,2.8-6.2,6.2c0,3.4,2.8,6.2,6.2,6.2l9,9H15.9c-2.4-2.4-6.3-2.4-8.8,0
	c-1.2,1.2-1.8,2.8-1.8,4.4H0v27.7c0,0.1,0,0.3,0,0.4c0.1,6.2,5.3,11.2,11.5,11.1h55.3c0.1,0,0.3,0,0.4,0c6.2-0.1,11.2-5.3,11.1-11.5
	V33.9H73.1z M15.9,49.2c0.8,0.8,1.9,1.2,3,1.2c2.7,0.1,5.2,1.2,7.2,3c4,4,4,10.4,0,14.3c-4,4-10.4,4-14.3,0c-1.9-1.9-3-4.5-3-7.2h6
	c0,2.3,1.9,4.2,4.2,4.2s4.2-1.9,4.2-4.2c0-1.1-0.4-2.2-1.2-2.9s-1.9-1.1-3-1.2c-2.6-0.2-5.2-1.2-7.2-3c-4-4-3.9-10.4,0-14.3
	c4-4,10.4-3.9,14.3,0c1.9,1.9,2.9,4.5,3,7.1h-6c0-2.3-1.9-4.2-4.2-4.2c-2.3,0-4.2,1.9-4.2,4.2C14.7,47.4,15.2,48.5,15.9,49.2z
	 M36.2,70.8l-7.1-34.7H35l4.2,20.3l4.2-20.3h6l-7.2,34.6L36.2,70.8z M59.5,64.8c2.3,0,4.2-1.9,4.2-4.2v-4.2h-4.2v-5.9h10.1v10.1
	c0,5.6-4.5,10.1-10.1,10.1s-10.1-4.5-10.1-10.1V46.3c0-5.6,4.5-10.1,10.1-10.1s10.1,4.5,10.1,10.1h-5.9c0-2.3-1.9-4.2-4.2-4.2
	s-4.2,1.9-4.2,4.2v14.3C55.3,62.9,57.2,64.8,59.5,64.8z"/>
</svg>
