<svg id="website-ux-icon" xmlns="http://www.w3.org/2000/svg" width="93.934" height="73.011" viewBox="0 0 93.934 73.011">
  <path id="패스_59" data-name="패스 59" d="M9.632,23.04H83.606V52H9.632V23.04Zm30.562,6.391h5.213V39.483a8.6,8.6,0,0,1-.466,2.821,6.118,6.118,0,0,1-1.46,2.324,5.83,5.83,0,0,1-2.087,1.4,10.576,10.576,0,0,1-3.654.566,23.179,23.179,0,0,1-2.691-.176,7.2,7.2,0,0,1-2.439-.68,6.114,6.114,0,0,1-1.789-1.452,5.293,5.293,0,0,1-1.108-1.942,10.1,10.1,0,0,1-.482-2.851V29.431h5.213v10.3a2.937,2.937,0,0,0,.764,2.156,3.29,3.29,0,0,0,4.235.015,2.938,2.938,0,0,0,.764-2.163v-10.3Zm7.5,0h5.756l2.989,5.2,2.9-5.2h5.68L59.779,37.61l5.741,8.707H59.649l-3.31-5.42-3.333,5.42H47.181L53,37.518l-5.305-8.088ZM6.36,0H87.574a6.375,6.375,0,0,1,6.36,6.36V66.651a6.38,6.38,0,0,1-6.36,6.36H6.36A6.375,6.375,0,0,1,0,66.651V6.36A6.375,6.375,0,0,1,6.36,0ZM90.18,17.8H4.044V67.27A1.749,1.749,0,0,0,5.8,69.029h82.59a1.757,1.757,0,0,0,1.246-.512,1.725,1.725,0,0,0,.512-1.246V17.8ZM81.519,7.147a3.142,3.142,0,1,1-3.142,3.142,3.142,3.142,0,0,1,3.142-3.142Zm-21.282,0A3.142,3.142,0,1,1,57.1,10.289a3.142,3.142,0,0,1,3.142-3.142Zm10.641,0a3.142,3.142,0,1,1-3.142,3.142,3.142,3.142,0,0,1,3.142-3.142ZM51.118,63.968a2.685,2.685,0,0,1,0-5.351h30.31a2.685,2.685,0,0,1,0,5.351Zm-39.682,0a2.687,2.687,0,0,1,0-5.351h28.1a2.687,2.687,0,0,1,0,5.351Z" fill="#fff" fill-rule="evenodd"/>
</svg>
